<?xml version="1.0" standalone="no"?>
<!DOCTYPE svg PUBLIC "-//W3C//DTD SVG 20010904//EN"
 "http://www.w3.org/TR/2001/REC-SVG-20010904/DTD/svg10.dtd">
<svg version="1.0" xmlns="http://www.w3.org/2000/svg"
 width="70.000000pt" height="70.000000pt" viewBox="0 0 70.000000 70.000000"
 preserveAspectRatio="xMidYMid meet">
<metadata>
Created by potrace 1.14, written by Peter Selinger 2001-2017
</metadata>
<g transform="translate(0.000000,70.000000) scale(0.100000,-0.100000)"
fill="#000000" stroke="none">
<path d="M275 657 c-8 -4 -15 -4 -15 0 0 4 -4 2 -8 -4 -4 -7 -18 -14 -30 -16
-13 -2 -31 -10 -40 -18 -9 -8 -21 -15 -25 -16 -12 -2 -47 -44 -47 -56 0 -6 -3
-7 -6 -4 -9 9 -39 -50 -56 -109 -15 -52 -18 -131 -5 -151 5 -7 6 -17 2 -22 -3
-5 0 -15 7 -23 7 -7 14 -20 16 -28 2 -8 7 -17 12 -20 5 -3 10 -11 12 -19 4
-19 43 -61 57 -61 6 0 11 -4 11 -9 0 -12 70 -52 80 -46 5 3 10 1 12 -5 2 -6
28 -11 58 -13 30 -1 58 -6 62 -12 5 -7 8 -6 8 0 0 6 8 12 18 13 20 2 56 10 60
12 1 2 5 3 10 4 20 5 71 38 102 68 45 42 88 124 92 171 1 20 6 37 10 37 4 0 4
10 -1 23 -4 12 -6 28 -4 35 3 6 -1 12 -7 12 -10 0 -10 4 0 15 9 10 9 15 1 15
-6 0 -10 3 -9 8 4 11 -24 74 -42 95 -36 43 -60 67 -60 60 0 -4 -4 -3 -8 3 -12
17 -79 54 -85 47 -4 -3 -7 -1 -7 6 0 7 -4 9 -10 6 -5 -3 -16 -3 -22 2 -17 11
-124 11 -143 0z"/>
</g>
</svg>
