<svg preserveAspectRatio="xMidYMid meet" xmlns="http://www.w3.org/2000/svg" xmlns:xlink="http://www.w3.org/1999/xlink">
  <g id="tight-bounds" >
    <svg viewBox="1.3967907428741455 -32.77790069580078 305.8354797363281 45.083980560302734"  data-palette-color="#f7a072">
      <path d="M10.616 11.327l-5.88 0.772-3.266-24.866c-0.203-1.802 0.018-3.469 0.664-5 0.646-1.531 1.625-2.806 2.937-3.825 1.312-1.02 2.867-1.647 4.664-1.883v0l12.265-1.611 0.676 5.145-11.63 1.528c-1.236 0.162-2.203 0.713-2.9 1.652-0.69 0.938-0.956 2.012-0.797 3.221v0l0.825 6.276 14.178-1.862 0.677 5.156-14.178 1.862zM47.64 7.776v0c-2.72 0.273-5.234 0.052-7.544-0.661-2.309-0.713-4.326-1.811-6.048-3.293-1.723-1.482-3.118-3.265-4.185-5.35-1.072-2.077-1.732-4.346-1.979-6.806v0c-0.247-2.461-0.05-4.809 0.591-7.044 0.634-2.234 1.648-4.249 3.042-6.044 1.394-1.801 3.153-3.271 5.277-4.408 2.123-1.144 4.561-1.854 7.314-2.13v0c2.726-0.273 5.234-0.059 7.521 0.643 2.294 0.695 4.31 1.786 6.047 3.273 1.743 1.48 3.147 3.252 4.211 5.316 1.071 2.063 1.73 4.326 1.977 6.787v0c0.247 2.461 0.051 4.816-0.588 7.064-0.632 2.254-1.655 4.28-3.07 6.076-1.408 1.796-3.166 3.272-5.274 4.429-2.102 1.155-4.533 1.871-7.292 2.148zM47.117 2.562v0c1.745-0.175 3.322-0.648 4.732-1.419 1.417-0.772 2.614-1.796 3.592-3.074 0.985-1.271 1.696-2.699 2.133-4.284 0.437-1.585 0.564-3.296 0.38-5.133v0c-0.181-1.804-0.644-3.45-1.39-4.936-0.745-1.48-1.724-2.732-2.939-3.756-1.208-1.018-2.583-1.775-4.127-2.27-1.536-0.489-3.177-0.646-4.921-0.471v0c-1.705 0.171-3.262 0.649-4.671 1.433-1.415 0.792-2.616 1.807-3.604 3.044-0.981 1.244-1.699 2.666-2.155 4.267-0.449 1.606-0.583 3.311-0.402 5.115v0c0.184 1.837 0.655 3.489 1.411 4.954 0.763 1.465 1.75 2.722 2.961 3.774 1.218 1.057 2.598 1.823 4.14 2.298 1.535 0.476 3.155 0.628 4.86 0.458zM86.747 4.628v0c-2.728 0.175-5.233-0.136-7.515-0.932-2.282-0.796-4.258-1.965-5.926-3.508-1.669-1.543-2.998-3.375-3.99-5.497-0.997-2.114-1.575-4.405-1.732-6.873v0c-0.158-2.468 0.123-4.808 0.843-7.018 0.714-2.21 1.799-4.187 3.258-5.931 1.458-1.75 3.268-3.155 5.431-4.215 2.163-1.067 4.625-1.689 7.386-1.866v0c2.734-0.175 5.232 0.129 7.494 0.913 2.268 0.777 4.243 1.94 5.925 3.489 1.689 1.542 3.028 3.363 4.017 5.464 0.996 2.101 1.573 4.385 1.732 6.854v0c0.158 2.468-0.123 4.814-0.842 7.038-0.712 2.23-1.808 4.217-3.286 5.962-1.472 1.744-3.282 3.156-5.43 4.235-2.142 1.079-4.597 1.707-7.365 1.885zM86.412-0.601v0c1.75-0.112 3.343-0.528 4.78-1.248 1.444-0.72 2.677-1.701 3.7-2.943 1.03-1.235 1.792-2.637 2.286-4.204 0.494-1.568 0.682-3.274 0.564-5.117v0c-0.116-1.81-0.519-3.471-1.211-4.983-0.691-1.506-1.625-2.792-2.802-3.859-1.17-1.061-2.518-1.866-4.043-2.416-1.518-0.544-3.152-0.76-4.901-0.648v0c-1.71 0.109-3.283 0.531-4.719 1.264-1.442 0.74-2.679 1.711-3.712 2.913-1.025 1.208-1.794 2.603-2.307 4.186-0.506 1.589-0.701 3.288-0.585 5.098v0c0.118 1.843 0.529 3.51 1.232 5.001 0.71 1.491 1.651 2.784 2.823 3.878 1.179 1.1 2.531 1.916 4.055 2.446 1.517 0.531 3.13 0.742 4.84 0.632zM121.123 2.338l-11.375 0.352-1.073-34.603 11.375-0.353c3.692-0.114 6.91 0.526 9.654 1.922 2.751 1.402 4.907 3.383 6.467 5.942 1.567 2.553 2.402 5.512 2.507 8.877v0c0.104 3.358-0.546 6.363-1.952 9.015-1.399 2.651-3.428 4.759-6.087 6.322-2.653 1.57-5.825 2.412-9.516 2.526zM114.723-26.908l0.752 24.228 5.537-0.171c2.339-0.073 4.406-0.624 6.202-1.653 1.802-1.03 3.201-2.477 4.197-4.343 0.996-1.858 1.456-4.024 1.379-6.495v0c-0.078-2.505-0.671-4.648-1.78-6.428-1.109-1.78-2.595-3.128-4.457-4.044-1.856-0.916-3.953-1.338-6.292-1.266v0zM157.106 2.549v0c-2.607-0.023-4.912-0.587-6.915-1.691-1.997-1.104-3.563-2.675-4.699-4.712-1.135-2.037-1.691-4.458-1.665-7.265v0l0.192-21.659 5.88 0.052-0.196 22.059c-0.013 1.447 0.282 2.776 0.885 3.988 0.596 1.205 1.461 2.176 2.594 2.913 1.127 0.737 2.45 1.112 3.97 1.126v0c1.547 0.014 2.893-0.338 4.04-1.055 1.146-0.717 2.022-1.672 2.625-2.866 0.604-1.201 0.912-2.525 0.925-3.972v0l0.196-22.059 5.93 0.052-0.196 22.059c-0.013 1.447 0.282 2.776 0.885 3.988 0.596 1.205 1.451 2.176 2.564 2.913 1.12 0.737 2.454 1.112 4 1.126v0c1.553 0.014 2.893-0.338 4.02-1.055 1.126-0.717 1.998-1.672 2.615-2.867 0.624-1.201 0.942-2.525 0.956-3.971v0l0.195-22.06 5.88 0.053-0.192 21.659c-0.025 2.807-0.623 5.218-1.794 7.234-1.171 2.016-2.765 3.559-4.782 4.628-2.023 1.069-4.338 1.592-6.944 1.568v0c-1.453-0.013-2.845-0.222-4.174-0.627-1.33-0.405-2.518-1.026-3.564-1.861-1.053-0.836-1.954-1.834-2.704-2.994v0c-0.73 1.147-1.646 2.122-2.746 2.925-1.094 0.797-2.292 1.396-3.596 1.799-1.31 0.395-2.705 0.586-4.185 0.572zM203.672 2.903l-5.882-0.289 1.703-34.578 5.883 0.289-0.708 14.373 16.69 0.822 0.708-14.372 5.883 0.289-1.704 34.578-5.883-0.289 0.738-14.972-16.69-0.822zM255.352 6.346l-13.706-1.091c-1.907-0.152-3.583-0.74-5.026-1.764-1.437-1.024-2.529-2.335-3.278-3.933-0.749-1.598-1.05-3.317-0.904-5.158v0c0.115-1.449 0.56-2.794 1.335-4.037 0.774-1.242 1.805-2.261 3.092-3.054v0c-1.146-0.981-1.994-2.132-2.544-3.453-0.557-1.315-0.781-2.664-0.671-4.046v0c0.147-1.841 0.714-3.468 1.702-4.88 0.988-1.406 2.255-2.496 3.802-3.269 1.552-0.766 3.232-1.077 5.04-0.933v0l13.906 1.107-0.416 5.224-13.268-1.057c-0.817-0.065-1.588 0.081-2.312 0.438-0.724 0.357-1.319 0.865-1.787 1.523-0.467 0.652-0.735 1.423-0.806 2.314v0c-0.063 0.791 0.091 1.545 0.462 2.264 0.377 0.726 0.895 1.322 1.553 1.788 0.658 0.467 1.413 0.734 2.263 0.803v0l11.444 0.911-0.416 5.223-11.144-0.887c-0.99-0.079-1.879 0.084-2.668 0.49-0.794 0.398-1.427 0.95-1.897 1.654-0.471 0.705-0.742 1.503-0.812 2.393v0c-0.068 0.857 0.074 1.671 0.427 2.442 0.353 0.77 0.881 1.408 1.583 1.912 0.702 0.504 1.532 0.794 2.489 0.87v0l12.969 1.032zM282.924 9.253l-13.675-1.439c-1.903-0.2-3.563-0.831-4.979-1.892-1.41-1.06-2.469-2.398-3.177-4.014-0.708-1.616-0.966-3.343-0.773-5.18v0c0.152-1.445 0.631-2.779 1.437-4.001 0.806-1.222 1.862-2.214 3.169-2.975v0c-1.121-1.009-1.939-2.182-2.456-3.516-0.524-1.329-0.713-2.683-0.568-4.062v0c0.193-1.837 0.802-3.448 1.826-4.835 1.023-1.38 2.318-2.438 3.883-3.171 1.571-0.726 3.259-0.994 5.062-0.805v0l13.874 1.46-0.549 5.211-13.237-1.393c-0.816-0.086-1.59 0.041-2.322 0.379-0.733 0.339-1.341 0.831-1.825 1.477-0.483 0.64-0.771 1.404-0.864 2.292v0c-0.083 0.789 0.052 1.547 0.404 2.275 0.358 0.735 0.861 1.344 1.507 1.828 0.646 0.484 1.394 0.77 2.242 0.859v0l11.417 1.202-0.548 5.211-11.119-1.17c-0.988-0.104-1.881 0.037-2.679 0.422-0.804 0.378-1.45 0.913-1.938 1.606-0.488 0.693-0.779 1.483-0.873 2.372v0c-0.09 0.855 0.032 1.673 0.365 2.451 0.334 0.779 0.845 1.43 1.534 1.951 0.689 0.522 1.511 0.833 2.466 0.934v0l12.939 1.361zM306.57 12.306l-9.125-1.175c-1.931-0.249-3.568-0.9-4.911-1.953-1.343-1.053-2.32-2.369-2.93-3.946-0.611-1.571-0.801-3.256-0.569-5.054v0l3.17-24.627 5.882 0.757-3.265 25.361c-0.135 1.045 0.1 1.989 0.704 2.833 0.61 0.845 1.471 1.339 2.582 1.482v0l9.124 1.175z"  fill="#f7a072">
      </path>
    </svg>
  </g>
</svg>
